<svg width="1409" height="100" viewBox="0 0 1409 100" fill="none" xmlns="http://www.w3.org/2000/svg">
<rect x="4" width="1400" height="100" fill="#FDCCDE"/>
<path d="M4 8C58.4725 78.1894 101.152 93 146.078 93C191.004 93 207.289 8 255.584 8C303.88 8 339.259 93 378.007 93C416.756 93 433.603 8 488.075 8C542.548 8 535.809 93 581.296 93C626.784 93 684.064 8 716.635 8C749.207 8 800.871 93 836.25 93C871.629 93 907.008 8 949.126 8C991.244 8 1004.16 93 1052.46 93C1100.75 93 1120.41 8 1159.15 8C1197.9 8 1200.71 93 1242.83 93C1284.95 93 1281.58 8 1329.87 8C1368.51 8 1395.39 64.6667 1404 93" stroke="#FB99D4" stroke-width="10"/>
</svg>
